<svg xmlns="http://www.w3.org/2000/svg" viewBox="0 0 259.72 490.33"><defs><style>.cls-1{fill:#00428e;}</style></defs><title>bg-img1-1</title><g id="Layer_2" data-name="Layer 2"><g id="레이어_1" data-name="레이어 1"><path class="cls-1" d="M2.7.34C.18,17.45,4.7,33.11,12.93,47.79c14.43,25.76,32.48,47.94,61.43,58.37,12.23,4.41,24.66,8.27,37.1,12.06,16.08,4.9,32.57,8.56,47.45,16.88,19.94,11.14,36.3,26.53,51.6,43.18,3.93,4.28,7.89,8.56,11.39,13.18,7.47,9.86,7.71,17.79,1,28.19-3.21,5-6.9,9.69-10.22,14.62-1.7,2.54-3.06,5.3-4.82,8.39,20.71,5.38,32.84,19.64,42,37.1a107.23,107.23,0,0,1,9.81,29.12l-1.41.5c-.48-1.45-1.05-2.89-1.42-4.38-3.61-14.6-9.4-28.16-18.87-40-7-8.7-15.35-15.45-26.09-18.94-1.07-.35-2.16-.67-3.26-.95a7.68,7.68,0,0,0-1.47,0c-3,6.81-2.79,14-2.84,21.21s.42,14.23-.51,21.19a36.38,36.38,0,0,1-5.17,15c-8.07,12.13-16.89,23.78-25.6,35.47S156.86,362.21,154,376.87c-2.69,13.67-1.88,27.33.18,41,1.78,11.9,4.16,24,1.15,35.85-2.42,9.53-6.56,18.63-10,27.91a5.82,5.82,0,0,1-.84,1.47c-7.08,9.36-13.37,10.08-18.32-.47-5.4-11.51-10-23.42-15.14-35-8.64-19.38-18.44-38.31-26-58.1-8.39-22.06-15.89-44.44-25.56-66-3-6.74-4.6-14.23-6-21.53-1.63-8.18.71-15.65,5.89-22.27,8-10.22,18.83-16.2,30.8-20.23a292.34,292.34,0,0,1,62.46-13.65c9.83-1.05,19.54-3.3,29.38-4.2,7-.64,14.11.15,21.18.1a5,5,0,0,0,3.62-1.56c4.38-6.25,8.45-12.72,12.78-19,8.32-12.11,8.22-19.91-1.35-31-17.55-20.35-36.17-39.53-59.88-53-14.46-8.19-30.49-11.91-46.2-16.57-9.76-2.88-19.49-5.88-29.22-8.88C45,100,21.85,72.78,6,38,1.28,27.65-.31,16.63.05,5.32.11,3.53,1.07,1.77,1.61,0ZM205.21,243.46c-8.62,0-16.27-.59-23.79.14-10.26,1-20.39,3.29-30.64,4.47a275.65,275.65,0,0,0-63.11,14.51C77.28,266.34,68.07,272,61,280.85c-5.2,6.54-7.18,14-5.49,21.93A145.48,145.48,0,0,0,62.28,325c4.34,11.2,10.21,21.87,13.88,33.27,8.18,25.38,18.48,49.81,30,73.85,7.61,15.94,14.07,32.43,21.43,48.51,1.35,2.93,4.27,6.66,7,7.11,4,.68,6.79-3.31,8.86-6.83.22-.36.4-.74.59-1.13,8.76-18.3,13.16-37.14,8.87-57.59a124.43,124.43,0,0,1-1.8-39.75c2-17.48,10.13-32.18,20.53-45.92,7.78-10.28,15.35-20.71,23.08-31,6-7.95,8-16.9,8-26.73C202.53,267.39,201,255.85,205.21,243.46Z"/></g></g></svg>