<svg xmlns="http://www.w3.org/2000/svg" viewBox="0 0 415.56 876.68"><defs><style>.cls-1{fill:#00428e;}</style></defs><title>Asset 8</title><g id="Layer_2" data-name="Layer 2"><g id="레이어_1" data-name="레이어 1"><path class="cls-1" d="M286.85,439.49c-.24-8.2-3.45-11.38-9.55-10.29a21.14,21.14,0,0,1-14.6-2.73c-4.05-2.28-8.17-4.43-12.32-6.51-3.5-1.75-6.83-1.58-10.46.3a158.78,158.78,0,0,1-17.35,7.68c-3.62,1.35-8,2.67-10.82-1.4-2.66-3.9,0-7.56,2.57-10.23,8-8.33,16.25-16.36,24.49-24.41,8.83-8.63,17.76-17.16,27-26.06-26.15-13.39-42-35.19-55.49-59.24-5.45-9.71-10.23-19.67-12.31-30.64-.7-3.65-.3-7.57,0-11.33.32-4.62,3.36-6.47,7.7-6.65,6.46-.28,12.9-.58,20-.9-1-3.5-1.8-6.71-2.77-9.87-9.51-30.68-24.79-57.66-50.21-78.11-17.64-14.2-38.24-22.14-59.9-27.28-23.55-5.6-47.36-10-71-15.43-16.57-3.79-29-13.6-36.6-28.83A29.29,29.29,0,0,1,2.7,83.35c.49-8.09,5.75-13,13.75-12.21a77.06,77.06,0,0,1,22.76,5.51c13.81,6,26.87,13.68,40.63,19.77,7.89,3.5,16.54,5.3,24.87,7.77,3.59,1.06,5.31-.71,4.7-4.16-1-5.94-2.49-11.81-3.76-17.71-.77-3.57-1.86-7.11-2.21-10.72-.42-4.46,1.76-6.07,6-4.44a60.81,60.81,0,0,1,10.17,5.1c6.36,3.92,12.5,8.19,18.81,12.19a53,53,0,0,0,8.18,4.34c1.18.49,3.58.37,4.05-.36.74-1.16,1-3.61.27-4.55a40.94,40.94,0,0,0-8.21-8.31C126.08,64,107.56,56.66,87.93,52c-11.53-2.74-23.1-5.72-35-4.81C33.34,48.66,19.6,38.86,7.81,25a69.77,69.77,0,0,1-6.24-9c-2.57-4.22-2-6.35,2-9.28C10.77,1.46,19.21-.09,27.66,0,74.1.5,115.23,14.62,147.84,49c13.8,14.54,21.46,32.57,26.61,51.73,1.4,5.23,3.36,10.08,9.06,14,.51-3.94,1.17-7,1.28-10.16.38-10.85.55-21.71.85-32.56a35.51,35.51,0,0,1,.56-5c1.81-10.87,2.3-11.28,13.16-11.4,5.93-.06,11.87-.39,17.78-.1,11.86.6,22.46-3.23,32.62-8.73,14.36-7.79,28.83-15.4,43-23.59,7.68-4.46,15.67-7.25,24.42-7,13.35.4,26.71,1.09,40,2.21,10.17.86,18.07,6.24,23.43,14.86,4.68,7.52,9.24,15.17,13.15,23.11,7.09,14.4,13.68,29,20.38,43.62a18.63,18.63,0,0,1,1.43,5.66c.08.64-1,1.41-1.56,2.13-.7-.56-1.71-1-2.05-1.69q-14.58-31.14-29-62.32c-.24-.51-.59-1-.84-1.46-7.27-14.63-19.37-21.48-35.41-21.68-12.24-.16-24.49-.23-36.73.07a22,22,0,0,0-9.2,2.72c-12.48,6.51-24.82,13.31-37.2,20-2.35,1.27-4.68,2.6-7,4a77.25,77.25,0,0,1-45.44,11.94c-5.06-.24-10.16.27-15.23.09-3.63-.13-5.24,1.58-5.48,4.87-.63,8.28-1.25,16.57-1.69,24.86-.38,7.31-.23,14.67-.93,21.94-.22,2.31-2.12,5.93-3.77,6.24-2.09.41-5.38-1.37-7-3.23a24.91,24.91,0,0,1-5.43-9.85c-12-49.79-45.52-78.11-92.52-93C62.24,6,44.9,2.63,27.13,3.92,20.41,4.4,13.79,6.86,7.26,8.86c-3.39,1-3.76,3.45-1.67,6.59C13.87,27.84,23.91,38.34,38.7,42.19c6.94,1.8,14.56.81,21.84,1.45,25.27,2.2,49.32,8.82,71.59,21.08,6.86,3.78,13.18,8.6,19.44,13.35a9.45,9.45,0,0,1,3.63,9.8c-.91,4.34-3.83,6.47-8,5a53.41,53.41,0,0,1-10.57-5.12c-7-4.27-13.71-8.91-20.65-13.25-2.57-1.61-5.4-2.79-9.25-4.74.83,4,1.34,6.81,2,9.59,1.36,5.61,2.88,11.18,4.17,16.8a19.13,19.13,0,0,1,.39,5.45c-.27,4.62-2.54,7.08-7.08,6.25-7.7-1.41-15.67-2.71-22.77-5.8-13.8-6-27-13.34-40.58-19.9C35,78.4,26.91,75,18,74.81S4.47,80.22,6.15,89.06c1.35,7,5.29,12.64,10,17.86,10.27,11.5,23.74,15.64,38.45,18.29,27.56,5,55.05,10.46,81.6,19.73,36.49,12.74,61.91,37.63,78.83,71.83a190.21,190.21,0,0,1,18.28,59c1.34,9.86,1,20,1.07,30,0,4,1.54,5,5.26,4.82,6.45-.31,12.39-1.15,15.74-7.73.36-.73,1.72-.95,2.62-1.41.2,1.11.91,2.41.54,3.28-2.15,5.1-6.4,7.68-11.61,8.85-8.54,1.93-16.8.41-24.94-2.23-1.44-.46-2.88-1-4.31-1.45-.15.45-.37.77-.29.92,11.13,19.47,24.7,36.73,44.34,48.39,6.31,3.75,6.21,3.52,11.45-1.73a48.21,48.21,0,0,1,10.13-8.15c6.35-3.57,13-1.78,16.26,4.67,5.74,11.4,7.79,23.28,1.06,35.14a57,57,0,0,1-20.3,21.11c-6.62,4-13.29,4.24-19.92,0-4.76-3-9.38-6.29-14.26-9.09-6.7-3.83-8.75-3.75-14.19,1.64-5.59,5.54-10.66,11.6-15.81,17.56-.8.93-.81,2.54-1.19,3.83,1.42.25,3.06,1.1,4.22.66,6.17-2.34,12.44-4.56,18.23-7.67a15.86,15.86,0,0,1,15.29-.48,66.66,66.66,0,0,1,7.11,3.72c6.13,3.85,12.41,6.39,20,4.86,3.51-.72,6.61.88,8.35,4.38.74,1.48,1.65,2.88,2.63,4.58,2.4-2.27,4.55-4.28,6.67-6.32,7.44-7.17,15-6.75,21.06,1.65a50.53,50.53,0,0,1,6.9,12.54c3.7,10.61,6.94,21.4,10,32.23,1.56,5.51.35,6.37-5.26,6-10.8-.65-21.62-1.12-32.44-1.48-14.8-.49-28.61,3.53-42.22,9-18.64,7.54-37.52,14.51-56.3,21.73a4.41,4.41,0,0,0-1,.6c24.82,0,49.9.23,75-.12,9.4-.13,18.77-1.76,28.18-2.34a9.14,9.14,0,0,1,6.31,2.14c4.38,4.37,7.52,9.78,7.35,16.12-.23,8.29,2.83,15.26,6.62,22.33,9.18,17.13,18.26,34.33,26.75,51.81,3.16,6.49,4.84,13.77,6.68,20.82,1.79,6.83-.48,12.92-5.34,17.81a56.83,56.83,0,0,1-10.08,8.32A305.83,305.83,0,0,1,293.94,671c-14.32,5.85-28.23,12.68-42.31,19.11-10.12,4.63-20,9.89-30.35,13.86-24.43,9.36-37.53,27.53-41.71,52.56a292.09,292.09,0,0,0-4,36.94c-.87,22.76-5.68,44.64-12.51,66.22-1.49,4.69-2.56,9.52-4.1,14.19-.36,1.12-1.84,1.87-2.81,2.79-.27-1.24-1-2.61-.73-3.7,2.6-9.5,5.27-19,8.15-28.41,5.66-18.48,7.6-37.49,8.57-56.68.83-16.34,2.44-32.55,8.1-48.15,6.1-16.82,16.85-29.33,33.37-36.22,29.77-12.4,57.65-28.84,87.95-40.21,12.92-4.85,24.91-12.53,36.7-19.92,14.15-8.88,16.25-15.77,10.63-31.41a212.39,212.39,0,0,0-10.62-23.91c-6.76-13.31-13.86-26.45-21-39.57a45.1,45.1,0,0,1-6-20.4c-.17-4.61-2.74-9.3-4.95-13.58-.78-1.5-3.74-2.68-5.66-2.62-7.16.2-14.3,1.28-21.47,1.49-15.5.45-31,.62-46.51.82-10.86.14-21.72.22-32.58.17a37.5,37.5,0,0,1-9.16-1c-2.74-.72-3.06-3.06-1-4.83,5.8-5,12.05-9.51,17.69-14.67q15.75-14.38,31-29.34c7.05-6.91,13.43-14.5,20.59-21.28a59.24,59.24,0,0,1,13.65-9.71c5.69-2.9,8.35-1.75,12.37,3.24A31.32,31.32,0,0,1,286.85,439.49Zm46,37.17c-4.2-12.45-7.83-24.08-12.12-35.46-1.55-4.11-4.46-7.81-7.2-11.34-2.2-2.83-5.72-4.63-9-2.39-6.1,4.21-12.29,8.64-14.57,16.3-.85,2.85-2.29,2.69-3.84,1a32,32,0,0,1-3.84-5.54c-1.93-3.25-4.68-4.28-7.82-2.35-4.27,2.64-8.68,5.32-12.27,8.77-7.41,7.13-14.34,14.76-21.43,22.23-11.85,12.49-23.52,25.16-38.3,34.39a22.23,22.23,0,0,0-2.65,2.32,6.08,6.08,0,0,0,3.92-.22c13.65-5.26,27.8-9.56,40.84-16.08,23.81-11.91,48.93-14.38,74.84-13.26C323.47,475.24,327.46,476,332.87,476.66Zm-90.61-82.19c6.55,4.1,12.92,7.93,19.11,12,6,3.94,11.75,3.93,17.72.05a53.38,53.38,0,0,0,20-22.92c2.24-4.9,1.61-7.13-3.35-8.95-7.77-2.86-15.73-5.2-23.69-7.49-1.1-.31-3,.57-3.94,1.5C259.34,377.26,250.74,386,242.26,394.47Zm-11.84-84.82c0-8.38.4-16.26-.12-24.09-.47-7.12-2-14.16-3-21.26-.33-2.51-1.52-3.27-3.92-3.18-4.92.18-9.86,0-14.78.28-6.13.39-7.26,1.71-7.42,7.8-.22,8.73,3.73,16.26,6.57,24.2C211.65,304.18,220.14,307.49,230.42,309.65Zm71.35,62.62c-2.07-6-3.56-11.54-5.85-16.69-1.58-3.57-5.12-4.94-8.95-3.74-6,1.89-9.66,6.64-13.63,11.28Z"/></g></g></svg>