<svg xmlns="http://www.w3.org/2000/svg" viewBox="0 0 240.01 309.34"><defs><style>.cls-1{fill:#00428e;}</style></defs><title>bg-img3-1</title><g id="Layer_2" data-name="Layer 2"><g id="레이어_1" data-name="레이어 1"><path class="cls-1" d="M56.21,238.19c-.06-7.49,1.87-10.48,7.2-11.94,3.47-1,6.08,1.62,4.62,5.13-1.1,2.63-3.52,4.66-5.51,6.77-1.71,1.82-3.82,3.19-5.46,5.07-3.6,4.12-7.18,8.29-10.45,12.72a44.78,44.78,0,0,0-5.34,10.2c4.77-4,9.27-2.48,13.39.19A126.43,126.43,0,0,1,68.48,276.7c10.33,8.91,20.47,18.08,30.63,27.22a14.77,14.77,0,0,1,2.07,3.28c-1,.76-2.08,2.16-3.11,2.14-3.57,0-7.33.08-10.66-1.1A51.82,51.82,0,0,1,75.94,302c-10.42-7.08-22-9.2-33.9-9.71-1.81-.08-4.19.41-5.41,1.68-5.49,5.7-12.62,4.78-19.12,6-4.09.78-8.4.3-12.6.08A4.81,4.81,0,0,1,0,294.59c1-19-.54-38.44,5.21-56.81,2.54-8.11,6.65-15.7,10.58-23.19,3.49-6.63,7.22-13,6-21.11-.09-.55-.22-1.09-.48-2.35L.81,194.75l-.43-1.87A27.79,27.79,0,0,1,4.07,191c4.57-1.59,9.23-2.9,13.72-4.71A5,5,0,0,0,20,182.67c.51-8.08.74-16.18,1.06-24.27.2-5.12.53-10.23.59-15.35.13-11.75,3.8-21.74,13.16-27.9,12.18-8,18.77-20.29,22.77-34.45,2.47-8.78,6.45-16,12.75-22C82.17,47.49,94.52,37.09,110.11,33.5c11.67-2.68,23.64-3.77,35.47-5.63,19.66-3.08,39.39-5.78,59-9.48,11.91-2.25,22.6-8.31,32.09-16.69A19.58,19.58,0,0,1,239.31,0l.7,1c-1.21,1.16-2.36,2.38-3.63,3.46-12.92,11-27.89,16.34-43.8,18.74-26,3.91-52.07,7.21-78,11.42-6.54,1.06-13,4-19,7.1A91.46,91.46,0,0,0,67.85,64.49a42.07,42.07,0,0,0-7.78,15.44,87.23,87.23,0,0,1-13.9,28c-2.64,3.67-7,5.85-10.4,8.87a46.1,46.1,0,0,0-7.22,7.91c7.61-6.39,16.29-4.11,24.49-3.88,2.42.07,5.93,2.26,7,4.56,4.25,9.41,8.53,19,11.31,29,3.7,13.28-2.24,23.65-11.24,31.9a112.56,112.56,0,0,1-31.71,20.66c-5.09,2.19-6.32,4.23-4.17,9.75a29.58,29.58,0,0,0,6.09,9.73A37.46,37.46,0,0,0,56.21,238.19Zm-33-47.48c2.19,9.76-1.54,17.3-5.81,24.85-3.41,6-6.92,12.14-9.24,18.7-6.83,19.32-5.46,39.84-6.17,60,0,1.2,1.65,3,2.91,3.6a11.22,11.22,0,0,0,5,.71c5.2,0,6-1.38,5.23-7-.53-3.7-1.39-7.89-.36-11.21,1.87-6,6.07-10.58,11.19-13.77,4.28-2.67,7.2-2.06,10.73,1.75a11.27,11.27,0,0,0,2.16,1.39c.9-13.31,11.6-19.29,17.31-29.08-12-2.3-18.15-4.83-24.45-10.08-4.43-3.7-8.06-8.11-9.62-14.15-1.51-5.85,0-8.55,4.52-11.05,8.67-4.79,17.15-10,25.67-15.11A34.64,34.64,0,0,0,56.12,187C44.38,185.3,34.13,187.88,23.25,190.71Zm-1.66-6.42c3-1.35,4.9-2.24,6.81-3,8.14-3.38,16.11-5,24.2.69,3.9,2.73,8.26,1.14,11.38-2.79,10.31-13,6.46-27.21.27-39.68a4.31,4.31,0,0,0-2.18-1.72c-12.62-5.4-24.85-5-36.46,3.21a4.73,4.73,0,0,0-1.92,2.9q-1.22,13.78-2.06,27.61C21.39,175.49,21.59,179.54,21.59,184.29ZM98.32,308l.22-1.84c-.86-.84-1.69-1.72-2.58-2.52-10-8.89-19.91-17.93-30.08-26.59a125.15,125.15,0,0,0-14.06-9.92c-3.4-2.16-6.51-1.73-9.32,1.91-3.11,4-4.13,3.65-7.93,0a6.34,6.34,0,0,0-5.1-1.63c-8.22,1.88-14.62,13.22-12.9,22.09.51,2.59.67,5.27,1,7.93a25.55,25.55,0,0,0,17.85-5.12,10.31,10.31,0,0,1,5.73-2.14c12.18.41,24,2.53,34.78,9.43a80.56,80.56,0,0,0,12.88,7C91.73,307.8,95.13,307.6,98.32,308ZM62,135.23c-2.49-10.55-4.81-12.59-13.74-12.57-3,0-6-.07-8.94.06-5.36.23-13.63,7.36-15.14,13a28,28,0,0,0-.36,4C36,130.9,48.53,130.54,62,135.23Zm-40,53,28.45-4.53C44.33,178,28.91,180.16,21.93,188.18Zm37.45,50.2A87.5,87.5,0,0,0,66,231.52c.33-.4-.7-3.14-1.35-3.26C60.76,227.51,57.55,232.37,59.38,238.38Z"/></g></g></svg>