<svg xmlns="http://www.w3.org/2000/svg" viewBox="0 0 262.36 154.96"><defs><style>.cls-1{fill:#00428e;}</style></defs><title>bg-img7</title><g id="Layer_2" data-name="Layer 2"><g id="레이어_1" data-name="레이어 1"><path class="cls-1" d="M146.87,134c3.75,1.82,8.41.81,11.4-3.06a28.28,28.28,0,0,0,4.87-9.15c2-7.13,3.27-14.32,4.78-21.49,1.21-5.73,2-11.49,3.6-17.17,1.34-4.8,3.59-9.51,5.44-14.26a3.38,3.38,0,0,0,.34-2A15.68,15.68,0,0,0,175,68.64c-2.8,3-5.33,6.24-8.31,9.07a77.59,77.59,0,0,1-16,12.1A9.68,9.68,0,0,1,148.06,91a17.65,17.65,0,0,0-8.22,3.83,3.65,3.65,0,0,1-6-1.47,32,32,0,0,1-1.3-5c-.3-1.47-1.22-2-2.79-1.4a10.64,10.64,0,0,1-7.63-.11,8.9,8.9,0,0,0-7.42.79c-3.31,1.78-6.67,2.61-9.9,1.3-1.87-.77-3.49-1.85-3.08-4.16a6.14,6.14,0,0,1,4.22-4.5,35.13,35.13,0,0,1,4.4-1.15c5-1.23,10.1-2.28,15.09-3.74,3.53-1,3.88-2,3.93-5.34,0-1.86.81-3.81,1-5.7a4.56,4.56,0,0,0-.68-2.85c-2.09-3.06-1.3-4.94,2.92-6,2.55-.62,3.41-1.85,3.2-4s.91-3.65,3.17-4.28c2.5-.7,5.05-1.12,7.57-1.66-1-2-2.12-4.24-3.29-6.43-.91-1.71-.71-3.36,1-5s1.93-3,1-4.71c-1.52-2.93-1-4.27,2.51-6.33a5.08,5.08,0,0,0,2.76-3.82c.48-3,1-6.09,1.67-9.13,2.63-11.65,12.66-11.94,18.31-7.66,4.49,3.39,7.28,8,9.57,12.9a55.19,55.19,0,0,1,4.39,32.34,25,25,0,0,0,.29,7.39c.17,1.12,1.2,2,2.18,3.52.22-1.52.08-2.46.52-3.14a8.23,8.23,0,0,1,2.79-2.89c.83-.42,2.79-.19,3,.36a4.59,4.59,0,0,1-.32,3.58c-.69,1.28-2.08,2.33-3.27,3.59,1,1.81,3,1.69,5.05.81,3-1.3,5.79-3,8.78-4.27a78.37,78.37,0,0,1,11.77-4.26c12.08-2.81,23.9-3.1,35.09-.48a29.32,29.32,0,0,1,9.7,4.29c3.6,2.49,2.8,6.53-1.43,9.47-1.94,1.34-4.21,2.2-6.17,3.52-1.63,1.1-3.88,2.41-4.4,3.87C246,79,241,81.73,235.8,84.41A10.75,10.75,0,0,0,233.32,86a12.42,12.42,0,0,1-11.63,3.28c-1.37-.28-2.75-.52-4.45-.83,1.24,2.37,2.37,4.48,3.45,6.63a8.2,8.2,0,0,1,.61,2c.63,3.11-.4,4.53-4,5-2.26.33-3,1.28-3.09,3.25-.19,3.4-1.11,4.14-4.75,4-1.38,0-2.22.15-2.93,1.68-.43.91-2,1.49-2.88,2.33s-1.91,1.63-2,2.44c-.51,3.11-1.34,3.64-4.16,2.26-.31-.15-.64-.26-1.47-.6.36,2,.63,3.63,1,5.23.93,4.77,1.89,9.54,2.81,14.32a8,8,0,0,1,.09,1.9c-.12,2.61-1.41,3.58-4,3-3.23-.76-5.51-2.56-6-5.69-.59-3.65-.85-7.39-1.11-11.12-.1-1.42-.57-2.33-2.19-2.19-4.59.38-6.77-1.52-6.46-6-1.27.36-2.31.71-3.36,1a17.48,17.48,0,0,1-4.16.78c-2.87-.07-4.19-2.82-2.09-4.84,3.42-3.29,3.57-6.58,3.17-10.19-.33-3.06.86-5.83,3.07-8.71a33.51,33.51,0,0,0,6.62-17c.08-.66.18-1.31.27-2l.69-.09a11.69,11.69,0,0,1,.14,2.36,38.06,38.06,0,0,1-7.62,18.43,12.67,12.67,0,0,0-2,5.19A13.53,13.53,0,0,0,175,106a8,8,0,0,1-2.65,7.13c-.86.82-1.67,3-1.25,3.36.78.73,2.45.9,3.8.8a21.55,21.55,0,0,0,4.13-1.24c1.37-.4,2.13-.19,2.28,1.3.42,4.07.68,4.26,5.25,4.42,2.26.08,3.34.93,3.39,3.12.08,3.12.42,6.2.71,9.28.27,2.88,1.41,5.24,4.39,6.23a16.41,16.41,0,0,0,3,.38,8.57,8.57,0,0,0,.63-2.88c-.78-4.74-1.73-9.44-2.63-14.15-.31-1.64-.73-3.25-.92-4.92a7.74,7.74,0,0,1,.47-2.26,17.74,17.74,0,0,1,2.24.39,14.34,14.34,0,0,1,2.08.93c.23-.64.54-1.07.5-1.42-.22-2.06.86-3.27,3-4.12a4.53,4.53,0,0,0,2.25-2c.8-1.91,2.11-2.15,3.8-2.11,3.25.09,3.4-.06,3.7-3.17.29-2.94.76-3.41,4.09-4,2.86-.54,3.81-1.45,2.84-3.71A74,74,0,0,0,214.88,88c-.34-.56-1.36-.69-2.07-1-6.07-2.83-12.2-5.56-18.16-8.54a13.5,13.5,0,0,1-4.14-3.68c-1.46-1.79-1-3.12,1.08-5.47,1.66-1.86,3.71-2.24,5.25-1.21A51.06,51.06,0,0,1,205,74.65c3.3,3.38,6.14,7.16,9.28,10.68A6,6,0,0,0,217.07,87a57.82,57.82,0,0,0,6.54,1.35,10,10,0,0,0,7.6-2c2.54-1.77,5.27-3.28,8-4.82,3.15-1.8,5.88-3.88,7-7.27,1.34-4,5.16-5.46,8.55-7.38a31.76,31.76,0,0,0,4.35-2.72c2.24-1.81,2.71-3.69,1.31-5.62a9.17,9.17,0,0,0-3.67-3.21,48.06,48.06,0,0,0-9.82-2.94A78,78,0,0,0,209.77,55c-3.92,1.25-7.6,3.66-11.4,5.52-2.86,1.41-5.73,2.8-8.69,1.65-2.25,6.93-5.62,13.09-12.28,17.59-.26.18-.43.5-.69.67-.48.31-1,.55-1.5.82-.16-.5-.55-1-.42-1.49.57-2.09,1.27-4.17,2-6.25a17.18,17.18,0,0,1,.91-1.89l-.74-.18a12.89,12.89,0,0,0-1.08,2.08c-1.71,5.75-3.69,11.49-5,17.26-2.1,9.34-3.64,18.7-5.66,28.05a36.8,36.8,0,0,1-3.14,8.53c-3.41,6.8-8.5,9.34-15.26,8.16-2.51,3.48-4.59,7.14-7.45,10.2a29.37,29.37,0,0,1-30.61,7.79,43.57,43.57,0,0,1-6.36-2.63c-15.93-8-32.49-14.85-50.78-18.65-7.81-1.63-15.82-2.55-24.3-1.5-13.52,1.68-21.56,8-26,20.37A6.36,6.36,0,0,1,0,152a1.44,1.44,0,0,1,.06-.65c2.74-10.19,10.68-17.76,21.64-20.6,7.52-1.95,14.79-1.8,21.94-.91,14.85,1.85,28.41,6.41,41.49,11.9,6.21,2.61,12.24,5.52,18.26,8.43s12.5,4.58,20,3.19c9.39-1.72,18.1-8.82,21.3-17.4a2.9,2.9,0,0,0-.54-2.09c-1.12-2.06-2.64-3.94-3.42-6.14-.44-1.22,0-3,.55-4.42a4.3,4.3,0,0,1,2.46-2.23,3.77,3.77,0,0,1,3.08,1c1.83,2,1.6,4.75,1.1,7.47C147.68,131,147.23,132.55,146.87,134Zm38.4-75.29c-2.62-3.21-2.55-7.16-1.93-11.17a54.11,54.11,0,0,0-5.81-34.63c-2.25-4.25-5-8.15-9.54-10.54-6.15-3.26-12.2-.53-14.23,6.51a101.15,101.15,0,0,0-2.13,10.64,5.85,5.85,0,0,1-3.2,4.37c-3.05,1.72-3.31,2.48-2,5.14.72,1.49,1.23,3.21-.41,4.62-2.76,2.37-2.2,4.43-1.07,6.6,1.8,3.43,3.84,6.26,8.65,7,4.14.61,7.91,2.45,11.65,4.06a14.27,14.27,0,0,1,7.36,7.27c.41.88.59,2.58,0,3.12A5.14,5.14,0,0,1,168.84,63a17.27,17.27,0,0,1-6.22-3A156.4,156.4,0,0,1,151,49.29c-3.11-3.17-7.14-2.5-11.4-1.29a3.26,3.26,0,0,0-2.7,3.54c.11,3.11-.71,4-4.11,4.94s-3.65,1.73-2.17,4.26a6.76,6.76,0,0,1,.9,3.63c-.09,1.8-1,3.7-1,5.47,0,3.69-.76,5.2-4.75,6.4-5.14,1.55-10.36,2.65-15.55,3.94-1.31.33-2.85.3-3.9,1-1.37.91-3,2.35-3.3,3.64-.24.93,1.15,2.36,2.26,3,2.69,1.42,5.74.66,8.69-.94s5.76-2,8.56-1a10.75,10.75,0,0,0,7.41.07c2-.68,3.24,0,3.63,1.87A24,24,0,0,0,135,92.89c1,2.27,2.65,2.45,4.93.63a14.46,14.46,0,0,1,6.94-3.26,8.82,8.82,0,0,0,2.71-1,78.14,78.14,0,0,0,19.91-15.93c2.32-2.5,4.54-5.72,7.4-7,3.7-1.67,4.09-5.65,7.58-7C184.7,59.27,184.87,59.05,185.27,58.72Zm26.79,26.22c-1.24-1.52-2.39-3.13-3.76-4.55-3.55-3.67-7-7.41-10.9-10.79-1.93-1.7-3.67-1.21-5.24.57-1.79,2-1.81,3.21.18,5C197.75,80,204.83,82.54,212.06,84.94ZM151.69,48.22c.39.42.76.86,1.18,1.26,2.79,2.62,5.52,5.31,8.41,7.83a26.67,26.67,0,0,0,5.88,4.2c1.1.53,3-.09,4.53-.19-.27-1.22-.2-2.67-.87-3.62C166.57,51.61,159.33,49.65,151.69,48.22Zm24.37,31a15.12,15.12,0,0,0,1.4-.71,27.79,27.79,0,0,0,10.51-15c.35-1.12-.79-2.42-1.24-3.63L183,61.79c-.13.07-.21.24-.31.36-1.8,2.14-3.25,4.24-3.66,7C178.57,72.35,177.18,75.57,176.06,79.22ZM145.65,133.4c1.42-3.54,2-6.69.93-9.61-.31-.84-1.62-1.23-2.48-1.83-.74.91-1.93,1.79-2.15,2.72C141.07,128.39,142.62,131.09,145.65,133.4ZM189,58.59c2.28-.9,4.29-3.31,3.5-4.44a2.73,2.73,0,0,0-2.48-.37C188.33,54.38,187.93,56.64,189,58.59Z"/></g></g></svg>